#!OML:ASF E:\emotionWalksFemale\Project 1\Capture day 1\Session 1\Female1.ASF
:FULLY-SPECIFIED
:DEGREES
352
root 10.6062 15.5589 19.296 360.35 171.619 -359.499
lowerback 8.16257 1.51066 3.99247
upperback -5.44275 2.76027 0.606361
thorax -10.2715 1.13982 -2.06597
lowerneck -6.63738 1.03966 -3.99157
upperneck 10.4075 1.59913 3.52249
head 4.13511 0.890851 1.82225
rclavicle 2.16178e-014 -3.97569e-016
rhumerus -45.992 9.18751 -90.892
rradius 42.2438
rwrist 7.56773
rhand -3.33328 -55.2167
rfingers 7.12502
rthumb 22.3941 -83.9387
lclavicle 2.16178e-014 -3.97569e-016
lhumerus -44.5371 -4.66454 91.5497
lradius 35.3395
lwrist -17.977
lhand -0.345751 -33.5217
lfingers 7.12502
lthumb 25.2592 -5.17381
rfemur 0.977463 24.2341 24.12
rtibia 14.5973
rfoot -14.7663 -32.5124
rtoes -0.0660979
lfemur -1.94531 -26.1419 -22.4514
ltibia 19.8113
lfoot -14.2066 31.7842
ltoes -53.7972
353
root 10.6052 15.5583 19.2979 360.238 171.862 -359.563
lowerback 8.25849 1.45988 3.89426
upperback -5.45167 2.67707 0.554446
thorax -10.345 1.10117 -2.05687
lowerneck -6.75792 1.01261 -3.99531
upperneck 10.6019 1.55889 3.63143
head 4.21492 0.879836 1.85766
rclavicle -5.26779e-015 -2.78299e-015
rhumerus -45.8606 8.92026 -90.9057
rradius 41.7755
rwrist 7.89555
rhand -3.12492 -55.6399
rfingers 7.12502
rthumb 22.5941 -84.3377
lclavicle -5.26779e-015 -2.78299e-015
lhumerus -44.5272 -5.00924 91.7975
lradius 35.2429
lwrist -17.7008
lhand -1.19262 -34.0378
lfingers 7.12502
lthumb 24.4476 -5.57788
rfemur 1.16891 24.3029 24.1551
rtibia 14.5749
rfoot -14.8809 -32.8361
rtoes 0.53164
lfemur -1.85562 -26.2001 -22.5305
ltibia 19.8141
lfoot -14.4454 31.6216
ltoes -53.6926
354
root 10.6039 15.5566 19.3011 360.209 171.896 -359.523
lowerback 7.96544 1.48256 3.9209
upperback -5.27459 2.67737 0.525132
thorax -9.96969 1.10657 -2.08714
lowerneck -6.86379 0.996502 -3.96301
upperneck 10.4992 1.5282 3.65835
head 4.20246 0.865263 1.85869
rclavicle -1.57537e-014 -1.66979e-014
rhumerus -45.4273 8.69763 -90.9215
rradius 41.316
rwrist 8.03288
rhand -3.24597 -55.9271
rfingers 7.12502
rthumb 22.4779 -84.6389
lclavicle -1.57537e-014 -1.66979e-014
lhumerus -44.1328 -5.25691 91.9722
lradius 35.1093
lwrist -17.2944
lhand -1.52776 -34.1604
lfingers 7.12502
lthumb 24.1263 -5.65748
rfemur 1.1976 24.3208 24.2199
rtibia 14.6004
rfoot -14.9393 -32.8844
rtoes 0.405976
lfemur -1.83825 -26.2148 -22.4872
ltibia 19.7773
lfoot -14.2042 31.6541
ltoes -53.888
355
root 10.6011 15.5567 19.3032 360.166 171.866 -359.504
lowerback 7.90736 1.51593 3.88023
upperback -5.23894 2.71184 0.531541
thorax -9.8951 1.128 -2.05977
lowerneck -6.82022 0.963895 -4.00027
upperneck 10.4252 1.48231 3.6918
head 4.17383 0.842066 1.87136
rclavicle -1.05853e-014 -1.70955e-014
rhumerus -45.2274 8.53617 -90.9237
rradius 40.7825
rwrist 8.20001
rhand -3.39184 -55.9123
rfingers 7.12502
rthumb 22.3379 -84.641
lclavicle -1.05853e-014 -1.70955e-014
lhumerus -44.0297 -5.46624 92.2004
lradius 35.096
lwrist -16.8835
lhand -1.8283 -34.0246
lfingers 7.12502
lthumb 23.8381 -5.48371
rfemur 1.20661 24.2686 24.2373
rtibia 14.6351
rfoot -14.9308 -32.822
rtoes -0.0802633
lfemur -1.79389 -26.1753 -22.4916
ltibia 19.7414
lfoot -13.8893 31.689
ltoes -54.1245
356
root 10.5974 15.557 19.3055 360.066 171.986 -359.593
lowerback 7.99134 1.5081 3.75766
upperback -5.2576 2.68501 0.484177
thorax -9.96962 1.11856 -2.04122
lowerneck -6.80869 0.89579 -3.98841
upperneck 10.4722 1.38664 3.73118
head 4.18975 0.798608 1.87691
rclavicle 2.22142e-014 9.14409e-015
rhumerus -45.2072 8.4041 -90.9856
rradius 40.3781
rwrist 8.35985
rhand -3.07701 -56.3275
rfingers 7.12502
rthumb 22.6401 -85.0196
lclavicle 2.22142e-014 9.14409e-015
lhumerus -43.9599 -5.70812 92.3783
lradius 35.0447
lwrist -16.6342
lhand -2.15279 -33.8482
lfingers 7.12502
lthumb 23.5268 -5.267
rfemur 1.28666 24.0728 24.154
rtibia 14.6511
rfoot -14.9242 -32.7689
rtoes 0.0956707
lfemur -1.6973 -26.2378 -22.628
ltibia 19.7196
lfoot -13.957 31.5396
ltoes -54.0955
357
root 10.5945 15.5594 19.3115 360.176 171.911 -359.588
lowerback 7.83893 1.52448 3.67266
upperback -5.26466 2.69178 0.486674
thorax -9.88946 1.13084 -1.98633
lowerneck -6.8836 0.864219 -3.93545
upperneck 10.5039 1.34436 3.68583
head 4.2144 0.777417 1.853
rclavicle 4.96962e-015 2.38542e-015
rhumerus -44.9821 8.26381 -90.997
rradius 39.8268
rwrist 8.76157
rhand -2.61421 -56.4726
rfingers 7.12502
rthumb 23.0842 -85.1099
lclavicle 4.96962e-015 2.38542e-015
lhumerus -43.7581 -5.77329 92.4666
lradius 35.0393
lwrist -16.5062
lhand -2.12616 -33.6883
lfingers 7.12502
lthumb 23.5524 -5.11041
rfemur 1.07828 23.8822 24.0333
rtibia 14.6793
rfoot -14.8742 -32.4785
rtoes 0.298818
lfemur -1.83043 -26.2271 -22.5595
ltibia 19.6782
lfoot -14.1275 31.4296
ltoes -53.9291
